# xmcd CD database file
#
# Track frame offsets:
#	150
#	5700
#	24450
#	41325
#	56250
#	69975
#	85575
#	97650
#	114750
#	128250
#	146550
#	165375
#	183825
#	199125
#	213300
#	231225
#	245550
#	259575
#
# Disc length: 3492 seconds
#
# Revision: 0
# Processed by: cddbd v1.5PL3 Copyright (c) Steve Scherf et al.
# Submitted via: CDex 1.51
#
DISCID=d70da212
DTITLE=Moleca 100 vergonha - A caceteira do forró vol.2
DYEAR=1900
DGENRE=Forró
TTITLE0=Abertura
TTITLE1=Você marcou em mim
TTITLE2=Tô sem graça
TTITLE3=Vou te amar
TTITLE4=Olhar voraz
TTITLE5=Vida eu te amo
TTITLE6=Pronta pra te amar
TTITLE7=Vai passar
TTITLE8=Moleca sem vergonha
TTITLE9=De coração pra coração
TTITLE10=Minha vida é te querer
TTITLE11=O amor e o poder
TTITLE12=Pedaço do céu
TTITLE13=Me faz mulher
TTITLE14=Giully
TTITLE15=Tempo ao tempo
TTITLE16=Não diga nada
TTITLE17=Encerramento
EXTD=
EXTT0=
EXTT1=
EXTT2=
EXTT3=
EXTT4=
EXTT5=
EXTT6=
EXTT7=
EXTT8=
EXTT9=
EXTT10=
EXTT11=
EXTT12=
EXTT13=
EXTT14=
EXTT15=
EXTT16=
EXTT17=
PLAYORDER=
